<svg version="1.1" xmlns="http://www.w3.org/2000/svg" style="display: block;" viewBox="0 0 2048 2048" width="1024" height="1024" preserveAspectRatio="none">
<path transform="translate(0,0)" fill="rgb(254,250,229)" d="M 1184 733.86 C 1198.29 723.39 1221.4 697.074 1235.2 683.594 C 1286.32 633.033 1337.15 582.179 1387.69 531.034 C 1405.35 513.262 1425.98 490.477 1445.37 476.3 C 1461.6 464.431 1497.68 465.539 1512.81 479.327 C 1544.31 508.02 1575.2 541.342 1604.78 572.569 C 1621.11 589.805 1621.64 625.515 1607.63 644.475 C 1588.21 668.418 1563 691.823 1540.91 714.07 L 1386.94 870.471 C 1369.92 887.61 1353.01 904.863 1336.22 922.229 C 1330.04 928.548 1319.28 938.43 1314.2 945.084 C 1322.03 945.034 1344.07 945.026 1351.3 946.614 C 1355 945.965 1357.45 946.644 1361.14 947.24 C 1361.31 952.325 1361.42 957.413 1361.46 962.501 L 1361.58 1255.12 L 1361.7 1337.43 C 1361.77 1376.19 1365.31 1410.2 1335.23 1440.17 C 1320.97 1454.53 1302.45 1463.88 1282.43 1466.82 C 1265.9 1469.27 1226.22 1468.25 1207.36 1468.22 L 1070.95 1468.2 L 587.284 1468.22 C 554.916 1468.17 530.323 1465.29 506.12 1441.55 C 471.651 1407.75 478.113 1364.06 478.24 1319.95 L 478.245 1208.29 L 478.21 947.949 C 478.208 906.681 478.22 865.451 478.124 824.088 C 478.062 797.703 486.58 774.186 505.371 755.357 C 515.622 745.086 539.757 733.214 554.046 731.7 C 575.17 729.462 600.84 730.267 622.492 730.274 L 747.699 730.336 L 1000.44 730.348 C 1043.1 730.343 1088.82 729.361 1131.24 730.404 C 1143.35 731.02 1173.47 731.711 1184 733.86 z"/>
<path transform="translate(0,0)" fill="rgb(115,86,71)" d="M 1184 733.86 C 1198.29 723.39 1221.4 697.074 1235.2 683.594 C 1286.32 633.033 1337.15 582.179 1387.69 531.034 C 1405.35 513.262 1425.98 490.477 1445.37 476.3 C 1461.6 464.431 1497.68 465.539 1512.81 479.327 C 1544.31 508.02 1575.2 541.342 1604.78 572.569 C 1621.11 589.805 1621.64 625.515 1607.63 644.475 C 1588.21 668.418 1563 691.823 1540.91 714.07 L 1386.94 870.471 C 1369.92 887.61 1353.01 904.863 1336.22 922.229 C 1330.04 928.548 1319.28 938.43 1314.2 945.084 L 1169.65 1089.58 L 1126.04 1133.08 C 1093.72 1165.24 1091.22 1164.28 1049.81 1183.59 L 959.751 1225.47 L 885.338 1260.44 C 873.502 1265.96 855.685 1274.95 843.95 1278.64 C 839.662 1277.46 835.137 1276.4 831.566 1273.68 C 827.423 1270.55 824.775 1265.83 824.259 1260.66 C 823.075 1249.07 832.49 1230.14 836.61 1218.76 L 856.208 1163.24 L 892.782 1059.88 C 898.979 1042.43 909.117 1010.9 917.738 996.139 C 925.395 983.032 956.675 961.885 969.03 949.619 C 1014.44 904.531 1059.66 859.169 1104.89 813.89 L 1154.76 764.111 C 1164.46 754.394 1175.19 744.244 1184 733.86 z"/>
<path transform="translate(0,0)" fill="rgb(203,162,132)" d="M 1362.58 614.62 C 1365.12 615.35 1461.91 711.99 1473.98 723.909 C 1432.62 764.174 1390.61 807.649 1349.75 848.647 L 1082.15 1117.23 C 1046.05 1080.03 1007.79 1043.33 971.328 1006.46 L 1208.8 769.157 C 1260.66 718.243 1311.93 666.727 1362.58 614.62 z"/>
<path transform="translate(0,0)" fill="rgb(254,250,229)" d="M 1472.04 508.026 C 1475.07 507.891 1478.44 507.671 1481.34 508.755 C 1488.45 511.419 1560.41 584.007 1568.84 593.674 C 1572.09 597.406 1576.04 602.216 1577.48 606.973 C 1578.64 610.793 1577.05 614.632 1575.09 617.907 C 1570.6 625.39 1505.84 690.135 1502.37 691.109 C 1467.32 658.836 1427.61 617.977 1393.67 584.23 C 1404.96 572.691 1461.61 513.685 1472.04 508.026 z"/>
<path transform="translate(0,0)" fill="rgb(254,250,229)" d="M 945.244 1038.34 C 948.558 1040.26 973.201 1066.2 978.048 1071.14 L 1049 1142.62 C 1031.95 1150.02 1013.47 1159.34 996.5 1167.36 L 955.604 1186.47 C 942.062 1168.75 925.355 1151.83 911.764 1133.89 C 922.752 1101.98 933.912 1070.13 945.244 1038.34 z"/>
<path transform="translate(0,0)" fill="rgb(115,86,71)" d="M 1361.14 947.24 C 1361.31 952.325 1361.42 957.413 1361.46 962.501 L 1361.58 1255.12 L 1361.7 1337.43 C 1361.77 1376.19 1365.31 1410.2 1335.23 1440.17 C 1320.97 1454.53 1302.45 1463.88 1282.43 1466.82 C 1265.9 1469.27 1226.22 1468.25 1207.36 1468.22 L 1070.95 1468.2 L 587.284 1468.22 C 554.916 1468.17 530.323 1465.29 506.12 1441.55 C 471.651 1407.75 478.113 1364.06 478.24 1319.95 L 478.245 1208.29 L 478.21 947.949 C 478.208 906.681 478.22 865.451 478.124 824.088 C 478.062 797.703 486.58 774.186 505.371 755.357 C 515.622 745.086 539.757 733.214 554.046 731.7 C 575.17 729.462 600.84 730.267 622.492 730.274 L 747.699 730.336 L 1000.44 730.348 C 1043.1 730.343 1088.82 729.361 1131.24 730.404 C 1125.56 743.335 1110.84 763.618 1096.2 766.311 C 1089.05 765.945 1072.45 770.471 1059.62 770.38 C 988.925 769.851 918.229 769.904 847.536 770.539 C 829.268 770.66 775.544 769.296 761.453 771.871 C 756.376 772.274 750.279 772.253 745.13 772.123 C 721.24 771.52 696.097 772.75 672.316 771.038 C 649.056 771.893 617.983 771.417 594.531 770.844 C 557.706 771.004 527.618 774.01 519.748 818.286 C 518.737 823.974 518.926 829.727 518.136 835.243 C 518.36 879.188 518.657 923.905 518.195 967.817 C 519.063 978.984 518.758 995.7 518.828 1007.18 L 519.028 1083.57 L 520.097 1275.81 L 519.935 1339.01 C 519.846 1375.49 516.299 1420.82 567.287 1425.3 C 591.277 1427.41 617.391 1426.02 641.702 1425.99 L 800.824 1425.92 L 1110.77 1425.96 L 1210.97 1426.01 C 1233.65 1426.04 1278.8 1429.55 1296.76 1417.28 C 1306.94 1410.39 1314.19 1399.95 1317.09 1388 C 1320.37 1374.22 1319 1326.36 1319.02 1309.4 L 1319.6 1090.47 L 1319.63 1030.99 C 1319.62 992.535 1315.35 969.855 1351.3 946.614 C 1355 945.965 1357.45 946.644 1361.14 947.24 z"/>
<path transform="translate(0,0)" fill="rgb(77,49,39)" d="M 518.195 967.817 C 516.282 988.693 518.656 1018.71 518.171 1040.33 C 517.929 1051.13 519.171 1062.77 517.247 1073.63 C 516.26 1065.94 516.444 1054.05 516.324 1045.97 C 516.022 1025.55 516.199 1004.84 516.489 984.398 C 517.218 933.065 515.378 880.141 516.784 828.972 L 517.515 828.629 L 517.13 826.745 C 518.381 829.457 518.035 832.031 518.136 835.243 C 518.36 879.188 518.657 923.905 518.195 967.817 z"/>
<path transform="translate(0,0)" fill="rgb(77,49,39)" d="M 594.531 770.844 L 593.379 770.683 C 587.232 769.881 582.701 770.019 576.519 770.092 L 575.897 768.975 C 578.78 767.109 666.751 767.631 672.316 771.038 C 649.056 771.893 617.983 771.417 594.531 770.844 z"/>
<path transform="translate(0,0)" fill="rgb(77,49,39)" d="M 761.453 771.871 C 775.544 769.296 829.268 770.66 847.536 770.539 C 918.229 769.904 988.925 769.851 1059.62 770.38 C 1072.45 770.471 1089.05 765.945 1096.2 766.311 C 1078.71 774.284 1056.87 773.09 1037.95 773.135 C 1012.84 773.195 987.693 773.082 962.575 773.042 C 895.532 772.988 828.491 772.598 761.453 771.871 z"/>
<path transform="translate(0,0)" fill="rgb(203,162,132)" d="M 610.392 937.46 C 637.593 935.306 685.419 936.748 713.653 936.748 L 908.236 936.919 C 906.807 942.329 904.94 950.521 901.75 954.91 L 603.265 955.005 C 603.707 947.408 602.211 939.505 610.392 937.46 z"/>
<path transform="translate(0,0)" fill="rgb(115,86,71)" d="M 662.063 1321.82 C 663.937 1319.09 666.055 1316.35 669.066 1314.72 C 682.567 1307.44 697.018 1300.94 711.092 1294.46 C 733.978 1283.93 757.302 1271.87 780.735 1262.87 C 783.473 1261.82 786.256 1262.37 788.986 1262.99 C 798.089 1265.98 799.887 1271.24 802.569 1279.89 C 799.881 1288.7 797.512 1294.05 788.581 1298.16 C 753.478 1314.3 718.416 1333.24 682.414 1347.11 C 668.421 1352.5 656.559 1337.17 662.063 1321.82 z"/>
<path transform="translate(0,0)" fill="rgb(77,49,39)" d="M 662.063 1321.82 C 663.937 1319.09 666.055 1316.35 669.066 1314.72 C 682.567 1307.44 697.018 1300.94 711.092 1294.46 C 733.978 1283.93 757.302 1271.87 780.735 1262.87 C 783.473 1261.82 786.256 1262.37 788.986 1262.99 L 788.151 1264.86 C 784.921 1265.37 781.7 1265.93 778.487 1266.54 C 771.194 1267.95 763.444 1273.03 756.623 1276.2 C 730.258 1288.45 704.572 1301.74 677.479 1312.39 C 673.27 1314.04 666.066 1321.69 663.278 1325.26 L 662.063 1321.82 z"/>
<path transform="translate(0,0)" fill="rgb(203,162,132)" d="M 605.388 1064.04 C 681.191 1063.19 758.403 1063.96 834.319 1063.97 C 834.185 1068.29 834.805 1079.41 832.752 1082.07 L 602.607 1082.22 C 603.079 1075.96 604.254 1070.2 605.388 1064.04 z"/>
<path transform="translate(0,0)" fill="rgb(203,162,132)" d="M 607.397 1192.32 C 629.219 1191.48 653.126 1191.96 675.169 1191.97 L 793.584 1192.06 C 790.947 1198.87 789.677 1202.37 785.942 1208.67 C 780.722 1211.34 624.403 1210 602.425 1209.94 C 603.751 1203.79 604.617 1197.91 607.397 1192.32 z"/>
<path transform="translate(0,0)" fill="rgb(203,162,132)" d="M 1163.29 1190.4 C 1186.2 1189.41 1214.09 1189.99 1237.16 1190.18 C 1237.08 1196.07 1236.31 1203.29 1235.82 1209.25 L 1192.51 1209.14 C 1167.09 1209.5 1141.67 1209.49 1116.25 1209.09 C 1134.65 1192.85 1138.76 1192.02 1163.29 1190.4 z"/>
</svg>