<svg xmlns="http://www.w3.org/2000/svg" width="1024" height="1024" preserveAspectRatio="none" style="display:block" viewBox="0 0 2048 2048"><defs><linearGradient id="Gradient1" x1="1284.19" x2="1259.36" y1="340.476" y2="289.371" gradientUnits="userSpaceOnUse"><stop class="stop0" offset="0" stop-color="#DB4B1F"/><stop class="stop1" offset="1" stop-color="#F76327"/></linearGradient></defs><path fill="#3B2631" d="M1204.07 320.673c23.64-23.502 46.16-49.506 69.58-73.42 65.18-66.549 131.66-132.88 206.26-189.027 28.23-21.242 98.59-80.815 131.66-45.519 12.93 13.811 21.12 42.64 25.76 60.711 26.64 113.454 29.37 248.713 23.29 364.57a1160.5 1160.5 0 0 1-25.87 194.401c-3.73 16.901-8.99 41.612-15.95 57.302 7.02 9.57 14.93 20.067 20.74 30.347 18.44 32.623 35.46 86.597 22.77 123.635 15.29 21.105 35.1 43.818 51.81 64.013a7992 7992 0 0 1 73.97 91.269c13.19 16.595 26.55 33.085 38.84 50.415 8.54 12.02 9.61 18.69-1.58 29.78-9.63 9.55-21.11 17.93-31.87 26.2a1375 1375 0 0 1-87.07 61.5 2418 2418 0 0 1-204.89 122.27c-13.56 7.09-43.15 23.29-56.68 28.17 7.89 28.33 15.5 56.73 22.84 85.21 2.83 11.22 6.6 30.23 9.7 40.42a586 586 0 0 1 91.55 46.61c68 42.37 104.82 84.99 135.83 159.46a654 654 0 0 1 26.25 77.7c7.09 25.52 37.99 158.76 29.52 180.03-4.42 11.11-25.8 18.98-36.11 23.3 6.77 39.22 12.91 78.56 18.41 117.98H362.511c1.739-6.05 3.105-15.36 4.175-21.74 4.295-25.6 10.125-51.09 14.678-76.59 1.829-5.02 2.708-10.07 3.994-15.22 5.707-22.88 10.343-46.88 17.975-69.18-10.542-4.7-22.942-13.67-31.899-20.98-19.778-16.13-16.162-24.24-9.486-45.79 33.949-109.63 75.63-219.82 143.696-313.23 10.598-14.54 23.543-27.83 34.555-42.06-22.235-6.15-45.252-11.92-66.189-20.57-39.319-16.24-71.244-40.63-100.199-71.23-4.701-4.96-15.462-9.62-20.748-14.36-30.127-25.13-55.055-62.91-63.673-101.29-21.544-20.64-130.624-118.56-131.53-144.13-.221-6.22 2.67-12.62 5.84-17.81 8.204-13.42 20.086-25.78 30.151-37.88 24.689-29.68 50.652-58.682 73.174-90.084 9.651-13.457 19.301-28.066 25.273-43.551 10.831-28.085 12.436-79.673 17.445-111.444 8.844-56.095 23.009-111.542 51.179-161.273-45.22-32.98-61.608-67.963-72.263-123.276-4.065-21.104-6.381-59.506-2.246-79.547-13.222-12.238-17.494-27.002-18.464-44.696-.767-13.999 1.85-33.957 11.492-44.683 4.107-4.568 12.95-8.294 18.362-11.702.853-66.244-.678-269.788 42.449-313.604 7.038-7.15 16.363-10.84 26.367-10.776 56.387.362 179.63 122.027 219.531 164.134a2203 2203 0 0 1 94.848 106.045c11.96 14.096 29.482 37.933 41.315 50.148 83.499 22.228 144.891-17.15 226.194-27.534 87.923-11.228 171.603.07 255.563 26.576"/><path fill="#F95E25" d="M557.416 647.428c76.03-24.035 125.039-86.083 153.596-156.846 3.658-9.065 7.958-21.204 13.734-29.271 17.761-17.603 51.784-13.497 56.31 14.73 2.771 17.29 6.146 30.53 9.058 47.515 15.246 61.749 47.979 103.476 106.702 127.488 54.455 23.601 146.924 27.827 206.344 20.417 9.56-1.192 20.21-3.975 29.49-6.502 3.56-.967 14.37-4.558 17.38-4.765l1.19-.414c40.99-14.521 78.06-47.896 96.45-87.381a201 201 0 0 0 10.68-28.796c4.08-14.227 9.99-54.345 21.57-59.564 3.67-.14 8.17 3.387 10.56 5.935 57.65 61.571 114.54 123.979 175.29 182.569 8.02 7.457 16.15 14.56 25.32 20.558 19.17 12.532 44.43 23.284 59.09 41.235 31.12 38.119 26.41 123.491 91.96 122.71 15.45 21.113 32.66 40.602 48.82 60.997 37.92 47.861 80.6 96.407 115.77 146.097-19.88 17.83-60.29 45.34-83.49 61.37a2471 2471 0 0 1-384.78 216.27c-15.46 6.92-53.22 24.53-67.58 28.89 8.79-10.21 49.91-42.48 62.14-52.34a2791 2791 0 0 1 187.28-140.32c26.66-18.03 55.45-35.58 82.82-52.8-145.86-80.85-475.6-56.4-634.807-17.74-41.784 10.15-100.118 34.48-142.374 48.63-82.145 27.5-193.264 55.44-279.493 36.26 13.657-31.11-5.579-65.37-33.497-78.08-29.838-13.59-76.652-17.31-108.899-24.75 18.493-7.13 50.75-26.66 69.014-37.19 12.509-7.2 28.808-19.21 41.336-27.3 35.142-22.69 64.225-45.599 73.68-88.637 9.602-46.707-3.405-99.422-27.61-139.57-28.097-46.602-82.338-65.158-129.253-33.392-64.944 43.973-86.131 149.485-42.437 214.979 13.599 20.383 33.818 35.9 57.454 42.8 8.869 2.52 19.729 3.51 29.021 5.39-38.282 23.52-89.581 55.98-132.173 67.93-10.223 2.87-18.802 6.7-26.718 13.91-24.417 22.23-27.581 60.52-28.81 91.45a1999 1999 0 0 1-51.677-50.9c-18.337-18.54-37.24-37.29-52.067-58.89 9.023-15.51 22.821-30.15 34.118-44.38 34.24-43.12 76.738-86.94 98.408-137.924 8.676-20.411 10.557-57.084 13.203-79.703 6.721-57.438 22.095-137.726 54.449-187.11 11.98 5.773 20.714 8.359 33.219 12.546 19.253 5.538 77.786 4.803 98.713 2.52 13.207-1.441 28.807-4.715 41.496-8.631"/><path fill="#561006" d="M896.816 651.044c54.455 23.601 146.924 27.827 206.344 20.417 9.56-1.192 20.21-3.975 29.49-6.502 3.56-.967 14.37-4.558 17.38-4.765 16.3 10.597 35.03 26.204 44.04 43.834-.58 10.443 13.35 24.624 7.2 36.542-11.04 7.715-36.71-15.398-43.03-12.362-.54-.15-3.07-1.453-3.66-1.747a830 830 0 0 0-33.72-12.013c-45.75-11.74-69.7-13.68-116.6-10.556-30.981 3.339-56.333 10.69-85.378 21.286-9.999 3.648-20.045 9.247-30.389 11.626-3.484.802-7.553-1.604-10.554-3.493a19.3 19.3 0 0 1-4.24-3.679c-21.46-25.257 1.411-61.745 23.117-78.588"/><path fill="#200502" d="M877.939 733.311c4.209-.133 5.15.887 6.911 1.542 4.505.184 17.065-5.637 21.257-7.299 28.238-11.199 56.615-22.114 87.124-24.099 6.128-.399 3.691-2.749 11.029.437-30.981 3.339-56.333 10.69-85.378 21.286-9.999 3.648-20.045 9.247-30.389 11.626-3.484.802-7.553-1.604-10.554-3.493"/><path fill="#200502" d="M1120.86 714.448c5.15-1.858 30.25 6.519 33.72 12.013a830 830 0 0 0-33.72-12.013"/><path fill="#561006" d="M417.207 653.539c19.253 5.538 77.786 4.803 98.713 2.52 13.207-1.441 28.807-4.715 41.496-8.631 18.24 13.868 31.157 32.034 34.481 55.054 2.241 15.518.494 43.717-22.6 37.13-6.924-2.109-16.87-10.454-23.854-13.37-9.276-5.188-18.237-9.201-27.984-13.314-29.725-10.442-49.43-15.58-81.062-14.552l-7.167.482c-10.775-5.268-34.176 5.734-44.222 10.513.656-6.807 3.435-16.409 2.727-22.478 6.173-14.083 17.538-24.175 29.472-33.354"/><path fill="#200502" d="m436.397 698.376-6.088-.773c1.009-1.17.313-.767 1.782-.932 19.407-2.185 70.132 3.5 85.321 15.139l.047 1.118c-29.725-10.442-49.43-15.58-81.062-14.552"/><path fill="#200502" d="M1194.07 704.028c13.05 23.345 23.83 54.446-17.15 33.767l-18.68-9.587c6.32-3.036 31.99 20.077 43.03 12.362 6.15-11.918-7.78-26.099-7.2-36.542"/><path fill="#200502" d="M387.735 686.893c.708 6.069-2.071 15.671-2.727 22.478 10.046-4.779 33.447-15.781 44.222-10.513-17.532 2.049-28.571 6.841-44.71 13.336l-1.369-.693c-2.427-6.393 2.036-18.344 4.584-24.608"/><path fill="#3B2631" d="M1022.55 749.422c38.3-2.816 81.6 13.637 110.87 36.403 69.35 53.95 90.1 164.496 16.89 224.645-32.85 26.99-67.28 36.2-108.45 40.83-1.56.19-3.12.34-4.68.46-48.311 3.8-121.125-6.55-161.984-36.28-4.599-3.35-5.404-9.07-5.61-14.64-2.594-70.032 7.035-147.827 55.047-202.425 26.328-29.547 58.562-46.622 97.917-48.993"/><path fill="#FEFEFE" d="M1028.11 781.455c70.45-.639 145.48 54.349 149.42 127.958a111.15 111.15 0 0 1-28.26 80.791c-30.3 33.716-74 45.786-118.02 47.976-50.513 2.95-110.826-8.09-151.08-40.221-3.569-92.724 42.02-209.273 147.94-216.504"/><path fill="#1FD0AA" d="M1053.59 800.38c117.86-10.266 148.7 187.412 5.54 217.21-136.437 13.29-134.102-202.861-5.54-217.21"/><path fill="#071F40" d="M1006.4 896.451c-9.736-15.5-11.282-35.992 8.04-46.267 9.13-4.857 18.73-.631 27.77 2.892 11.58-3.837 22.18-6.253 34.08-1.689 67.6 25.931 40.48 142.485-33.87 124.078-32.02-7.926-43.406-48.716-36.02-79.014"/><path fill="#FEFEFE" d="M1006.4 896.451c-9.736-15.5-11.282-35.992 8.04-46.267 9.13-4.857 18.73-.631 27.77 2.892 15.53 22.595 5.02 43.224-20.82 49.045-7.25-1.801-8.29-1.983-14.99-5.67"/><path fill="#FEC388" d="M546.446 1192.36c86.229 19.18 197.348-8.76 279.493-36.26 42.256-14.15 100.59-38.48 142.374-48.63 159.207-38.66 488.947-63.11 634.807 17.74-27.37 17.22-56.16 34.77-82.82 52.8a2791 2791 0 0 0-187.28 140.32c-12.23 9.86-53.35 42.13-62.14 52.34-16.14 8.45-41.3 17.53-58.89 24.25a1466 1466 0 0 1-207.14 62.34 5155 5155 0 0 1-66.346 13.91c-10.164 2.07-23.249 4.21-32.901 6.73-7.128 10.27-16.793 26.71-25.252 34.86-10.549 3.75-58.088.75-70.951-.18 1.961-12.19 24.121-61 30.135-72.41 23.931-2.89 50.363-6.21 68.089-24.7 3.239-3.38 5.325-6.65 5.125-11.38-6.017-4.98-26.447 6.96-33.345 9.84-24.815 10.35-128.68 12.46-159.535 13.61-111.917 4.16-226.814 1.78-313.86-79.03 23.976-.94 40.206-2.77 63.69-7.8 163.601 65.39 381.996 8.12 508.322-110.07 12.162-11.38 22.109-22.98 33.419-35.01 14.85 1.39 25.87 6.1 39.78 7.96 7.73-15.55-21.41-29.26-33.07-31.75-16.85-3.6-30.892-5.02-48.126-2.48-13.696 2.02-38 7.6-41.519 23.1l.916 1.2c7.401.61 33.042-2.16 42.413-2.79-8.999 9.26-17.313 19.31-26.455 28.69a337.8 337.8 0 0 1-59.563 48.14c-97.976 63.09-240.043 92.93-354.223 67.84a291 291 0 0 1-39.626-11.71c-30.274-11.45-39.953-21.59-57.478-48.9 8.458-4.85 18.897-9.18 27.72-13.89 30.589-16.3 66.073-38.56 84.237-68.68"/><path fill="#F9688B" d="M982.063 1694.13c1.966 7.03 2.38 12.55 8.385 16.36 10.012 2.02 35.262-7.99 46.272-11.49a1205.5 1205.5 0 0 0 302.68-142.57 792.7 792.7 0 0 0 118.12-96.44c51.49 25.52 79.56 36.81 128.3 71.3-87.62 44.25-179.11 180.53-210.09 272.78-.63 1.89-1.2 3.49-1.47 5.48.89 9.29-6.35 20.01-7.45 27.21-3.81 24.78-9.74 47.34-10.16 72.75-.15 9.06 4.54 28.86.83 33.64 3.21 16.52 8.57 27.72 24.52 34.92-.04 21.47.74 48.31 1.7 69.93H928.892l-28.614-222.42c-5.715-45.62-11.486-106.13-20.528-149.83 10.017-13.99 23.345-31.33 30.853-46.46 7.608-15.32 12.54-32.36 21.127-47.49 1.881-2.69 4.3-7.21 6.016-10.19 4.726 8.37 6.896 19.48 11.35 28.29 10.224 31.36 22.702 62.41 32.967 94.23"/><path fill="#110A11" d="M1374.26 1809.55c.89 9.29-6.35 20.01-7.45 27.21-3.81 24.78-9.74 47.34-10.16 72.75-.15 9.06 4.54 28.86.83 33.64-9.46-42.26 2.14-93.38 16.78-133.6"/><path fill="#123167" d="M751.298 1501.82c17.594 8.91 38.542 9.54 58.102 10.76 12.863.93 60.402 3.93 70.951.18 12.014 6.58 18.416 4.73 31.214 1.3 13.114 23.69 15.513 26.92 24.257 51.64l1.924 5.91c-1.716 2.98-4.135 7.5-6.016 10.19-8.587 15.13-13.519 32.17-21.127 47.49-7.508 15.13-20.836 32.47-30.853 46.46 9.042 43.7 14.813 104.21 20.528 149.83L928.892 2048H665.103c.367-4.17.52-5.26 1.592-9.28 1.421-3.32 5.583-28.59 6.515-33.89-3.103-25.52 16.317-76.4 16.724-104.03.024-1.57 2.099-3.52 3.275-4.49-8.246-6.84 6.226-39.72 8.741-50.78l.329-1.48c1.404-10.42 6.286-28.31 8.916-38.82a1517 1517 0 0 1 26.237-93.31c6.597-21.22 13.502-40.77 17.021-62.79-4.866-10.3-11.236-19.65-15.871-31-11.47-28.08-18.147-47.59-35.314-73.18 2.736-7.96.871-13.73 7.865-19.08 12.091-9.26 28.948-13.84 40.165-24.05"/><path fill="#3B2631" d="m925.401 1582.51 6.329-.71c-8.587 15.13-13.519 32.17-21.127 47.49-7.508 15.13-20.836 32.47-30.853 46.46 9.042 43.7 14.813 104.21 20.528 149.83L928.892 2048h-20.91c-4.077-20.72-5.455-44.12-8.276-65.16-1.363-10.16-2.375-23.97-5.897-33.45-1.792-8.34-3.065-17.4-4.415-25.88l-.607-3.35-1.981-10.27-.684-3.93c.068-4.57.446-5.99-1.377-10l.252-2.29c-.104-7.86-5.371-23.08-6.258-34.61 1.61-7.96-4.08-66.86-8.91-70.89l.066-2.21c-2.543-3.3-2.754-.4-8.134-2.98l-.362-1.61c3.21.27 3.58.83 6.064-.37.66-7.48-3.592-20.8-3.031-30.21l1.113-.31c3.518-7.06-4.384-47.55-4.368-59.43 20.783-36.99 43.036-70.68 64.224-108.54"/><path fill="#F89E16" d="M818.929 1773.44c16.361-14.09 21.411-21.92 45.503-22.65-.561 9.41 3.691 22.73 3.031 30.21-2.484 1.2-2.854.64-6.064.37l.362 1.61c5.38 2.58 5.591-.32 8.134 2.98l-.066 2.21c-9.574 15.01-18.013 21.69-34.501 11.8-5.119-3.07-12.82-11.6-17.052-13.07-.197 1.24-.326.81.409 2.1 5.973 10.53-3.52 27.11-16.25 24.28-2.441-.54-4.588-2.62-5.695-4.78-2.392-4.65-.548-9.81 1.14-14.45 1.589-4.98 7.667-13.81 12.764-15.36l2.779 2.41c4.937 2.8 6.99-7.28 17.359-7.15l-.787-2.24c-3.598.15-7.484 1.04-11.066 1.73"/><path fill="#9F5318" d="M829.995 1771.71c5.705 1.61 12.091 1.4 18.065 1.51-5.543 1.03-11.992 2.79-17.278.73z"/><path fill="#F9688B" d="M702.279 1844.05c17.816 2.68 23.697 6.52 34.186 21.67 6.021 3.81 11.118 10.56 6.893 17.95-.902 1.58-4.237 3-5.983 4.05l.638.47 1.742 1.54c-2.461 3.44-4.596.26-8.261 3.93 6.54 6.7 7.863-1.44 14.44 2.7 1.226 2.95 1.498 3.96 2.293 6.96l1.764 1.52-1.383 3.58-2.272-.44c.27-2.88.021-9.27-2.338-10.86-2.121 2.36-2.084 2.83-4.824 4.2-3.226-4.8-3.403-3.53-9.215-3.4l-.996-2.4c-12.872 5.59-22.84 5.29-35.754.79-8.246-6.84 6.226-39.72 8.741-50.78z"/><path fill="#3B2631" d="m738.013 1888.19 1.742 1.54c-2.461 3.44-4.596.26-8.261 3.93 6.54 6.7 7.863-1.44 14.44 2.7 1.226 2.95 1.498 3.96 2.293 6.96l1.764 1.52-1.383 3.58-2.272-.44c.27-2.88.021-9.27-2.338-10.86-2.121 2.36-2.084 2.83-4.824 4.2-3.226-4.8-3.403-3.53-9.215-3.4l-.996-2.4.236-.55c-.938-1.92-13.776-5.54-17.414-6.89 6.619.84 21.63 3.67 26.228.11"/><path fill="#3B2631" d="M736.465 1865.72c6.021 3.81 11.118 10.56 6.893 17.95-.902 1.58-4.237 3-5.983 4.05-5.938-1.56-8.666-3.05-13.751-6.26 5.069 1.22 11.387 3.2 16.394 2.81l1.05-1.27c-2.996-2.51-2.496-1.09-2.99-3.99l.955-.43 2.735 3.07 1.624-.09c.484-4.45-4.512-11.69-6.927-15.84"/><path fill="#F9688B" d="M729.959 1897.92c5.812-.13 5.989-1.4 9.215 3.4 2.74-1.37 2.703-1.84 4.824-4.2 2.359 1.59 2.608 7.98 2.338 10.86-3.452 14.09-12.467 32.61-26.205 38.31-19.932 8.26-31.363-12.37-22.766-29.44 8.127-16.14 16.995-13.51 31.344-18.49z"/><path fill="#1BA667" d="M886.122 1905.96c-18.279-.63-43.691-10.64-45.546-32.68-.277-3.28.416-6.83 2.764-9.28 1.945-.38 2.356-.42 4.226-1.06-.166-21.85 21.236-10.32 31.173-3.88.887 11.53 6.154 26.75 6.258 34.61l-.252 2.29c1.823 4.01 1.445 5.43 1.377 10"/><path fill="#0D3C54" d="M864.355 1884.38c7.562 2.5 12.984 6.52 20.642 9.29l-.252 2.29c-7.621-1.77-14.157-6.98-20.39-11.58"/><path fill="#1BA667" d="M692.407 2021.83c.58-8.9.256-17.89 4.837-25.44l2.284-1.33c7.266 3.16 7.976 20.58 4.511 24.59-4.793 5.54-3.806 13.52-5.961 16.3a125 125 0 0 1-4.097-.95c1.158 2.5.934 1.82 3.023 3.92l-.129 1.5c-3.118.52-7.213-.79-10.453-1.56 2.783 1.76 6.167 3.64 8.322 6.01-1.609 1.84-2.266 1.3-5.483 1.74 1.872.72 2.578.94 4.528 1.39h-28.686c.367-4.17.52-5.26 1.592-9.28 1.421-3.32 5.583-28.59 6.515-33.89 7.064 3.03 13.829 11.27 19.197 17"/><path fill="#071F40" d="M666.695 2038.72c7.619 3.4 14.381 7.25 22.566 7.89 1.872.72 2.578.94 4.528 1.39h-28.686c.367-4.17.52-5.26 1.592-9.28"/><path fill="#F9688B" d="m749.991 1904.84 1.473-.12 1.653 4.65 1.067.26c2.426-2.42 2.651-7.69 3.478-11.6l1.417-.33 2.748 2.59c2.238 4.37 4.366 6.41 6.941 10.33 2.216.98 3.835 1.73 6.138 2.52 1.504 2.53 2.411 4.85 3.835 7.17-1.149 2.61-.67 1.95-2.424 4.12-.162 5.42.445 9.35-3.262 13.21-6.76 1.98-7.421-2.42-14.015-5.77-3.871 6.95-9.297 20.11-17.977 20.76-2.696-1.08-2.71-.85-4.238-3.25-.583-8.22 8.521-30.88 11.783-40.96z"/><path fill="#071F40" d="M768.768 1910.62c2.216.98 3.835 1.73 6.138 2.52 1.504 2.53 2.411 4.85 3.835 7.17-1.149 2.61-.67 1.95-2.424 4.12-1.217-3.51-5.41-9.38-7.549-13.81"/><path fill="#F89E16" d="m850.719 2048 1.417-.18c4.62-.63 12.433-1.98 16.118-4.74l.244-.66c-3.117-.34-4.72-.11-7.117-2.41-4.65-12.59 17.445-30.98 29.41-31.72 6.941 5.83.016 25.06 3.201 33.16.778 1.98-.792 5.06-2.063 6.55z"/><path fill="#F89E16" d="M793.684 2048c-1.752-3.77-8.16-15.96-6.501-18.91 8.349-14.86 44.64 1.56 49.124 13.69l-.493 2.22c-3.636 2.13-5.267 1.69-9.224 3z"/><path fill="#1BA667" d="M888.787 1920.16c-8.69 6.76-30.474 21.35-37.285 10.92-14.534-22.25 27.512-21.66 35.304-21.19z"/><path fill="#F89E16" d="M795.679 1790.91c-5.701 6.53-15.338 18.7-25.054 12.77-10.713-14.32 21.175-27.77 28.353-26.84 2.255 2.05 2.381 1.76 5.487 2.24l6.043-2.44c2.906 1.68 1.717.46 2.915 4.46l-2.779-2.41c-5.097 1.55-11.175 10.38-12.764 15.36z"/><path fill="#3B2631" d="M798.978 1776.84c2.255 2.05 2.381 1.76 5.487 2.24l6.043-2.44c2.906 1.68 1.717.46 2.915 4.46l-2.779-2.41c-5.097 1.55-11.175 10.38-12.764 15.36l-2.201-3.14c.248-.56 4.786-6.67 6.315-9.51l-.533-1.64c-3.832-.02-2.785.15-6.62 3.03l.184-1.33a43 43 0 0 0 3.953-4.62"/><path fill="#1BA667" d="M889.394 1923.51c1.35 8.48 2.623 17.54 4.415 25.88-4.328 2.03-12.578 5.15-16.894 3.26-20.048-8.77 6.553-25.54 12.479-29.14"/><path fill="#F9688B" d="m761.827 1900.29 1.387-3.22c11.605.12 33.238 8.66 34.261 21.68l-1.011 2.12c-4.356.81-9.55-3.9-16.053-4.7-1.227 1.95-1.145 1.88-1.67 4.14-1.424-2.32-2.331-4.64-3.835-7.17-2.303-.79-3.922-1.54-6.138-2.52-2.575-3.92-4.703-5.96-6.941-10.33"/><path fill="#3B2631" d="m761.827 1900.29 1.387-3.22c1.438 4.77 3.455 6.17 6.94 9.71-.057 2.78.245 1.47-1.386 3.84-2.575-3.92-4.703-5.96-6.941-10.33"/><path fill="#071F40" d="m935.822 1565.7 1.924 5.91c-1.716 2.98-4.135 7.5-6.016 10.19l-6.329.71c3.028-8.4 3.149-11.73 10.421-16.81"/><path fill="#F9688B" d="m741.118 1801.99 19.445-.04c9.945 12.75 22.762 25.45 14.824 42.48-2.642 5.66-16.943 24.9-21.997 26.88-2.783-1.29-1.981-1.29-3.438-5.24-3.271-8.41-5.2-16.3-7.493-24.99a416 416 0 0 1-1.152 24.52c-9.883-15.08-11.87-20.22-16.987-37.77 3.533-14.33 5.741-17.13 16.798-25.84"/><path fill="#F89E16" d="M804.884 1698.8c12.728 6.62 11.504 21.46 10.082 33.29 2.689-7 4.762-21.01 9.402-23.89 3.762-.1 2.121-.63 5.106 1.61 2.326 4.59 2.405 9.47 2.984 14.67 3.236 2.87 12.949-3.54 16.856.73-1.614 11.86-18.333 39.92-32.848 35.43 1.138-2.39 1.177-2.4 1.652-4.99l-2.673-1.45c-3.001-3.7-4.551-13.18-1.896-17.38l-1.155 2.01 1.038-1.14-.608 2.45.529-3.29-.988 1.93.623.7c-3.397 10.8-5.956 18.8-17.431 8.35-6.143-5.59-24.347-17.42-22.65-25.72l2.119-1.39c6.319-.87 8.263 1.08 13.432 4.84 1.758-17.26 1.027-18.4 16.426-26.76"/><path fill="#F9688B" d="M766.021 1880.73c-2.456-3.21-.906-2.01-5.076-3.35 2.816-17.44 18.029-28.08 35.086-27.73 25.454.52 25.38 9.64 12.067 27.43 4.814 1.51 5.467.76 8.337 4.04 4.511 23.27-49.372 21.57-53.198 5.75 1.003-2.94.179-1.78 2.354-3.74z"/><path fill="#5B384D" d="M766.021 1880.73c3.57-2.49 3.904-3.61 7.608-3.97-1.536 2.96-4.989 5.09-8.038 6.37z"/><path fill="#1BA667" d="M809.765 1526.36c17.855 2.31 7.04 27.03 3.393 36.37l9.549-14.59c9.763-4.68 29.28-8 38.337-.93 1.462 3.63 1.283 1.68-.463 6.1 3.188 13.24.177 14.79-10.778 20.79-6.12 3.49-14.355 8.23-21.376 9.1-5.542.68-5.882-4-10.828-5.46-2.124 1.85-2.779 2.46-5.151 3.93-.526-2.73.296-3.74 1.267-6.68l-.823-1.02-3.502 3.99-1.384-.49c-2.177-5.23.825-7.23-.799-13l-1.135-.02-2.806 3.99-.967-.07c-4.584-10.58-.004-32.98 7.466-42.01"/><path fill="#1BA667" d="M790.379 1609.49c-12.542-.34-49.54-.45-42.715-21.3 2.824-2.9 3.282-2.88 7.241-4.37l1.091-.4c.395-3.92-3.671-7.6-4.009-11-2.655-26.66 27.13-5.86 35.179 1.35 7.54 6.75 10.403 9.52 11.005 18.31l-1.597 2.36c2.26 3.17 3.063 5.25 2.688 8.81-2.208 3.35-5.219 4.36-8.883 6.24"/><path fill="#0D3C54" d="M796.574 1594.44c-3.901-2.11-10.033-5.03-12.245-8.67 4.859.89 9.409 3.87 13.842 6.31z"/><path fill="#F89E16" d="M755.656 1734.07c14.14-.16 25.855 9.37 36.748 17.44 3.736 2.76 9.313 7.11 9.874 11.7-3.226-1.42-1.779-1.46-4.737-1.09-.931 6.66 2.753 2.5 2.653 7.75-2.564 2.48-7.011 4.21-10.35 5.79-20.142 5.57-37.171 4.05-49.413-14.55 5.012-5.95 11.826-8.4 12.751-12.81-1.392-3.04-2.58-4.88-2.577-8.22 1.225-3.52 2.076-3.8 5.051-6.01"/><path fill="#1BA667" d="M734.528 1990.32c3.411-.44 4.318.3 6.59 2.3 1.591 4.78-.092 7.69-.592 13.31l1.191.74c3.117-1.12 4.228-1.73 7.598-1.77l1.648 1.63c1.391 4.39.438 7.43-.286 12.04-9.204 8.27-12.724 10.06-24.066 15.43-4.776 2.21-11.5 6.16-16.404 4.38-6.569-7.57-1.74-30.16 3.885-37.61 6.014-7.97 11.228-9.19 20.436-10.45"/><path fill="#F89E16" d="M838.299 1981.62c2.19.26 2.635.45 4.778 1.03 2.661 3.05 2.613 5.29 5.886 6.84 3.547-2.12 4.454-2.96 8.403-3.69 11.531 3.97-1.744 37.98-5.292 46.18-2.734 3.52-3.444 4.37-7.67 3.89-11.092-7.63-22.795-42.97-6.105-54.25"/><path fill="#1BA667" d="M809.744 1637.39c-.723 2-2.003 3.75-3.691 5.04-7.758 5.91-18.924 6.36-25.32-1.66-5.953-7.46 6.884-19.05 12.053-23.94 3.986-3.77 9.932-9.13 15.601-7.75 2.285 4.24-1.72 15.55-3.056 20.6l.944-.3c.904 2.17 2.421 6.1 3.469 8.01"/><path fill="#1BA667" d="M811.407 1620.21c1.579-7.35-1.286-9.82 4.207-16.33 2.682-.65 3.071-.28 5.854.3.551-1.87.333-.99-.665-3.49 6.681-2.92 33.595 25.26 13.086 34.56-10.046.33-13.912-14.43-18.329-14.34l-2.183 1.24z"/><path fill="#F89E16" d="M810.748 1989.37c1.456.26 2.988.52 4.316 1.23a9.1 9.1 0 0 1 3.347 3.13c3.868 6.04 6.802 16.37 10.281 23.12 2.029 3.93 8.645 14.59 6.993 18.15-16.243-8.12-35.173-26.13-24.937-45.63"/><path fill="#1BA667" d="m783.113 1541.7 3.221.47c3.675 3.42 10.659 26.31 10.916 31.34l-1.177.94-1.789-1.26c-12.258-9.53-12.784-12.52-20.92-25.93z"/><path fill="#1BA667" d="M822.36 1593.78c15.491-.64 22.147 15.51 29.31 20.25-12.003.98-21.943-12.17-29.31-20.25"/><path fill="#12AA5F" d="m811.407 1620.21 1.97 1.94c-.841 6.87-.997 8.61-3.633 15.24-1.048-1.91-2.565-5.84-3.469-8.01z"/><path fill="#F9688B" d="M531.496 1491.43a300 300 0 0 0 9.899 25.33c20.091 44.86 57.164 104.77 104.659 122.78 6.523 2.47 17.126 6.74 23.696 2.87 8.055-4.75 24.519-64.71 29.387-77.52a1158 1158 0 0 1 23.003 48.8c4.027 9.02 10.083 23.88 14.894 32-.519 6.9-11.095 34.57-13.466 44.41-.688 1.82-1.55 3.87-2.02 5.73a2402 2402 0 0 0-56.492 229.75c-5.456 27.82-12.716 64.64-16.518 92.5-2.526 9.72-3.423 20.14-5.428 29.92H518.847c1.211-92.59 2.105-179.66 8.886-272.24 1.662-23.93 3.759-47.83 6.289-71.69 4.057-35.66 8.179-61.63 10.004-98.09-2.227 3.98-1.016 3.06-4.624 5.06-7.778 22.54-16.376 66.43-20.303 90.25-4.721 32.3-12.429 83.83-13.25 115.53-1.105 5.68-1.532 19.44-1.858 25.79-.815 15.36-1.547 30.72-2.197 46.09-39.033-13.58-91.453-39.04-121.655-67.74 38.759-121.32 75.945-224.5 151.357-329.53"/><path fill="#110A11" d="M544.644 1591.17c-.411 4.7-.462 10.04-.618 14.81-2.227 3.98-1.016 3.06-4.624 5.06 1.617-8.16 2.487-12.1 5.242-19.87"/><path fill="#EF5622" d="M1403.88 1982.01c90.28 8.02 210.95-9.12 295.57-43.33 8.44 35.65 13.6 73.04 18.87 109.32h-312.64c-1.13-21.38-1.49-44.52-1.8-65.99"/><path fill="#F95E25" d="m417.356 1905.9 3.407 3.56c7.94 8.3 42.591 29.83 53.8 35.2 6.103 2.93 16.333 6.1 22.996 7.88l.575 9.78q-.16 42.84-1.084 85.68H388.61c6.119-41.97 17.653-101.7 28.746-142.1"/><path fill="#F95E25" d="M725.143 1446.53c15.213-.79 31.352-.16 46.955-.87 22.942-1.05 44.769-3.77 67.437-5.49-6.014 11.41-28.174 60.22-30.135 72.41-19.56-1.22-40.508-1.85-58.102-10.76-1.891-2.32-1.59-1.06-1.68-3.62 5.825-6.75 22.652-12.3 22.633-20.26-4.41-6.73-23.455-14.74-31.083-20.09-5.197-3.64-10.771-7.47-16.025-11.32"/><path fill="#EF5622" d="M424.787 1879.64c26.224 13 46.971 22.44 75.402 31.12-.286 11.05-.52 42.28-2.055 51.56l-.575-9.78c-6.663-1.78-16.893-4.95-22.996-7.88-11.209-5.37-45.86-26.9-53.8-35.2l-3.407-3.56c2.201-9.6 4.471-16.92 7.431-26.26"/><path fill="#110A11" d="M721.548 1695.83c.328.92.987 2.66.725 3.62-4.432 16.3-9.882 34.47-14.109 50.67a3173 3173 0 0 0-40.623 178.07 1704 1704 0 0 0-10.631 58.31c-.884 5.23-4.168 29.14-6.748 31.86l-1.624-.28c3.802-27.86 11.062-64.68 16.518-92.5a2402 2402 0 0 1 56.492-229.75"/><path fill="#110A11" d="M519.099 1701.29c1.855 3.47 2.183 3.75 1.647 7.81-3.961 29.98-8.349 59.92-10.775 90.07-.549 6.82-.406 20.22-3.484 26-.27-2.78-.483-5.56-.638-8.35.821-31.7 8.529-83.23 13.25-115.53"/><path fill="#110A11" d="m949.096 1599.9 1.474-.2c6.305 8.39 15.742 45.07 21.512 56.52 4.924 9.77 7.313 26.23 11.376 35.74l-.365 2.05-1.03.12c-10.265-31.82-22.743-62.87-32.967-94.23"/><path fill="#110A11" d="m737.034 1645.69.98.24c.307 8.53-9.446 35.5-13.036 44.43l-1.41-.26c2.371-9.84 12.947-37.51 13.466-44.41"/><path fill="#FED632" d="M479.723 310.428c10.792-1.166 22.369-.648 33.236-.692 47.805-.192 93.785 4.495 139.898 17.709 40.509 11.609 71.404 25.338 115.312 25.939 57.757.792 92.04-15.836 145.047-27.815 31.868-7.202 64.342-9.592 96.944-9.668 31.59-.073 62.5 1.987 93.72 6.838 35.23 5.472 190.79 42.991 212.35 66.091 5.22 5.588 7.28 13.847 6.66 21.325-.58 7.07-3.46 14.028-9.01 18.617-11.16 9.212-25.14 8.943-38.65 7.315-1.81 29.331-14.78 31.721-26.48 55.123-4.11 8.218-8.32 28.69-10.57 38.809-27.81 124.939-162.53 133.795-266.943 118.535-13.357-3.321-25.289-5.14-39.076-9.412-76.157-23.599-108.093-57.01-123.328-135.662-4.021-18.48-4.552-39.353-16.305-55.03-13.882-18.516-39.525-21.687-60.584-15.752-27.082 7.633-33.231 32.581-42.463 55.627a281 281 0 0 1-13.377 28.254c-49.148 90.259-131.932 129.916-232.855 117.798-115.179-13.83-143.998-120.738-129.292-220.926-9.28-4.018-12.927-6.218-18.634-14.371-1.421-8.453-1.973-36.451 2.964-43.61 4.17-6.048 21.707-10.855 29.246-13.651 52.317-19.398 96.882-27.328 152.19-31.391"/><path fill="#123167" d="M986.728 348.434c51.762-5.21 160.602 7.676 202.392 37.827 45.84 33.075 17.29 152.075-15.28 188.5-31.94 35.722-58.02 42.64-103.59 47.133-106.979 2.098-219.704-14.541-228.638-144.243-7.289-105.828 55.222-122.877 145.116-129.217"/><path fill="#315996" d="M994.254 372.459c19.766.273 33.116 1.574 52.656 4.015-8.76 9.638-20.2 20.589-29.84 29.42-28.69 26.309-57.29 58.194-92.808 74.783-4.214 1.894-8.599 3.093-13.218 3.331a31.92 31.92 0 0 1-23.668-8.487c-19.552-18.04-11.807-51.578 4.784-68.73 27.468-28.395 64.921-33.1 102.094-34.332"/><path fill="#123167" d="M500.699 335.448c41.119-1.283 111.979 3.181 146.8 23.315 50.857 29.406 7.867 131.141-14.536 165.152-28.529 43.311-66.993 67.613-116.041 77.827a277 277 0 0 1-31.777 3.991c-85.867 4.989-134.026-45.884-138.004-129.457-5.059-106.309 60.279-136.88 153.558-140.828"/><path fill="#315996" d="M504.254 356.432c12.234-.643 27.324-.194 39.486.538-36.171 35.544-89.195 94.078-132.138 116.291-10.042 3.658-21.713 4.189-29.678-3.362-21.903-20.762-2.738-58.876 13.121-75.994 25.531-27.557 74.29-35.639 109.209-37.473"/><path fill="#F9688B" d="M1380.74 1954.88c-17.1-70.27 19.2-179.82 51.24-243 29.3-57.76 100.17-154.3 163.09-173.85 42.45 30.82 75.65 91.01 94.25 139.16 4.7 12.15 8.48 26.19 13.27 38.66l1.54.18c3.38 8.99 14.4 40.34 11.29 48.24.83 4.37 4.68 24.1 6.09 27.68l1.62-.05c2.89 7.17 9.92 35.71 5.99 42.04 3.18 17.32 8.44 45.79 9.06 62.91-75.68 47.72-271.86 83.57-357.44 58.03"/><path fill="#110A11" d="m1702.59 1715.85 1.54.18c3.38 8.99 14.4 40.34 11.29 48.24-4.04-16.2-8.32-32.34-12.83-48.42"/><path fill="#110A11" d="m1721.51 1791.95 1.62-.05c2.89 7.17 9.92 35.71 5.99 42.04-2.28-13.85-5.05-28.14-7.61-41.99"/><path fill="#FEC388" d="M1341.99 382.976c6.83-12.106 14.25-24.037 21.64-35.823 53.96-86.161 109.08-173.775 178.2-248.739 6.08-6.593 27.54-29.638 37.32-25.527 17.73 18.008 20.83 137.638 20.58 165.988-.76 49.918-3.15 99.799-7.15 149.562-1.43 18.698-3.77 38.271-4.92 56.787 8.77-9.995 31.61-40.735 42.92-44.953 1.51.282 1.96.028 2.96 1.368 11.3 15.133-14.02 179.077-19.79 206.844l-13.78 64.653-37.09-37.302c-3.12-3.121-15.98-15.602-18.19-18.499-21.22-20.885-58.38-56.434-76.74-78.521-9.76-9.238-20.15-20.229-29.67-29.887-12.06-11.262-27.55-28.69-39.59-41.05-9.07-9.419-23.06-22.396-30.91-31.625-8.13-8.111-10.59-10.87-21.35-15.214l-.97-.377c1.06-15.891 1.43-22.507-3.47-37.685"/><path fill="#EF5622" d="M1587.66 445.224c8.77-9.995 31.61-40.735 42.92-44.953 1.51.282 1.96.028 2.96 1.368 11.3 15.133-14.02 179.077-19.79 206.844l-13.78 64.653-37.09-37.302c-3.12-3.121-15.98-15.602-18.19-18.499 4.4-8.544 20.14-32.098 21.94-37.947 10.29-34.33 12.71-71.412 18.05-106.817 1.25-8.26 1.12-19.858 2.98-27.347"/><path fill="#EF5622" d="M1367.78 436.252c8.73-11.42 38.29-47.552 50.26-50.374l1.6.709c3.22 9.632-18.14 59.875-20.95 81.29-9.07-9.419-23.06-22.396-30.91-31.625"/><path fill="#F95E25" d="M1438.28 508.927c27.69-11.687 30.06 8.203 29.67 29.887-9.76-9.238-20.15-20.229-29.67-29.887"/><path fill="#F9688B" d="M1422.88 1324.84c1.67 7.04 3.18 14.25 5.68 21.02l1.62.16c3.7 5.93 21.63 70.52 22.15 81.73.01.16-.96 2.08-1.02 2.19l3.24 14.58c-17.24 17.33-38.16 33.78-57.35 49.06-118.97 94.71-249.33 152.13-394.41 193.57-13.664-45.19-34.918-91.11-50.411-135.94-8.095-23.43-24.988-33.53-36.577-54.51 181.988-31.27 342.318-89.61 507.078-171.86"/><path fill="#110A11" d="m1428.56 1345.86 1.62.16c3.7 5.93 21.63 70.52 22.15 81.73.01.16-.96 2.08-1.02 2.19a7965 7965 0 0 0-22.75-84.08"/><path fill="#1FD0AA" d="M555.538 966.24c-36.234 52.02-107.355 59.97-147.472 7.985-41.944-55.035-28.173-139.562 24.019-183.244 35.796-29.959 76.251-18.35 103.05 16.654 24.795 32.661 42.079 77.94 36.366 119.449-1.66 12.061-7.762 30.056-15.963 39.156"/><path fill="#FEFEFE" d="M555.538 966.24c-36.234 52.02-107.355 59.97-147.472 7.985-41.944-55.035-28.173-139.562 24.019-183.244 35.796-29.959 76.251-18.35 103.05 16.654-13.593.108-23.165.513-36.434 6.026-57.691 23.973-76.469 119.15-34.507 164.012 21.49 22.977 61.422 13.015 82.486-5.601 1.574-1.293 7.163-5.513 8.858-5.832"/><path fill="#071F40" d="M486.492 878.005c-8.693-22.416 3.762-42.534 28.788-34.83 11.494.239 21.199 1.959 29.731 10.856 8.473 8.834 12.702 22.05 14.666 33.965 3.076 22.941-1.422 47.438-19.508 63.368-14.145 12.459-33.562 16.028-46.589.005-12.079-15.162-12.014-37.077-9.725-55.35a854 854 0 0 1 2.637-18.014"/><path fill="#FEFEFE" d="M486.492 878.005c-8.693-22.416 3.762-42.534 28.788-34.83 19.39 25.911-10.156 53.899-28.788 34.83"/><path fill="#FEC388" d="M355.417 77.764c33.865 2.719 139.932 173.69 159.178 208.209-16.382.119-36.178.473-52.35 1.822-46.755 2.15-88.066 13.517-132.403 26.711q-.35-6.555-.261-13.118c.261-46.601 4.413-177.347 20.024-215.6 1.339-3.282 3.318-5.558 5.812-8.024"/><path fill="#FED632" d="M1332.35 435.779c5.02 1.157 49.65 48.61 57.17 56.313l94.38 96.447a5796 5796 0 0 1 86.14 89.445c11.73 12.61 28.07 29.28 37.65 42.889 17.21 25.618 31.74 59.481 34.18 90.498 1.97 25.014-9.84 28.765-25.96 10.995-7.79-10.767-15.8-29.942-19.09-41.828-13.8-49.975-33.45-73.715-79.2-98.968-8.78-4.841-28.62-20.209-36.56-27.868-39.24-37.878-77.24-78.005-114.95-117.457a5184 5184 0 0 0-43.1-44.516c-5.53-5.616-26.76-25.398-28.18-31.166 2.51-10.744 17.74-11.586 26.53-16.634 4.69-2.692 6.95-4.703 10.99-8.15"/><path fill="#F9688B" d="M558.691 1442c39.494 7.38 101.769 6.18 142.415 6.06 12.152 17.73 25.635 21.1 41.233 34.38-8.609 7.6-43.55 28.96-46.573 34.21-6.705 11.65-15.166 41.05-19.799 55.13-5.982 15.69-12.327 36.75-17.626 52.99-50.873-20.19-101.63-95.49-112.476-148.35 1.868-7.29 9.77-26.32 12.826-34.42"/><path fill="#5B384D" d="M355.141 1110.42c24.547-3.1 110.537 11.44 136.846 17.87 6.523 1.77 11.693 4.41 17.286 8.14 6.128 4.08 13.927 15.34 7.378 22.03-4.508 4.6-19.098 4.58-26.014 5.07-21.166.04-156.058-19.67-163.41-35.78 1.843-14.97 15.951-16.24 27.914-17.33"/><path fill="#FEC388" d="M308.427 1196.74c1.475 1.32 1.163.81 2.033 2.51 16.318 31.9 39.444 51.81 72.104 66.07 8.985 4.01 24.838 9.55 30.713 17.85 4.234 5.99 26.668 32.56 26.458 37.76l-1.779.78a1687 1687 0 0 1-52.186 4.47c-43.626-25.19-77.882-78.42-77.343-129.44"/><path fill="url(#Gradient1)" d="M1291.72 271.702c13.16 1.496 7.76 22.217 7.82 30.938.14 19.631-11.63 27.844-18.52 43.563-10.53-3.526-20.81-7.525-31.58-11.076-4.81-1.99-14.26-4.585-19.57-6.208 15.95-15.902 44.08-46.281 61.85-57.217"/><path fill="#EF5622" d="M1330.68 299.738c7.92 2.169 9.05 12.495 14.88 18.264 1.62 1.607 6.33 3.903 8.49 4.981-6.55 12.292-20.98 31.905-29.23 43.729-8.26-6.403-16.12-9.889-25.57-14.199l-15.71-5.915c9.56-8.115 34.76-31.23 42.55-39.638-4.69 3.493-7.72 6.071-13.12 8.463 1.57-4.014 13.96-12.898 17.71-15.685"/><path fill="#EF5622" d="M609.504 245.249c3.666 1.366 8.543 3.779 11.443 6.254 11.29 9.635 52.593 48.583 58.948 59.043l-1.146 1.297c-26.192-8.352-43.803-12.966-70.583-18.223-1.238-13.502-1.827-34.958 1.338-48.371"/><path fill="#EF5622" d="m558.007 264.874 1.713-.079c16.903-.669 27.962 15.933 40.467 27.603-9.277-.428-14.723-1.348-23.924-3.008-7.904-7.196-14.919-14.027-18.256-24.516"/></svg>